<svg width="358" height="316" viewBox="0 0 358 316" fill="none" xmlns="http://www.w3.org/2000/svg">
<rect x="121.282" y="62.8326" width="10.2286" height="46.7592" fill="#0F4C82"/>
<rect x="134.433" y="62.8326" width="10.2286" height="46.7592" fill="#0F4C82"/>
<rect x="146.122" y="62.8326" width="11.6898" height="46.7592" fill="#FFBE58"/>
<rect x="160.735" y="62.8326" width="10.2286" height="46.7592" fill="#0F4C82"/>
<rect x="172.424" y="62.8326" width="10.2286" height="46.7592" fill="#0F4C82"/>
<rect x="201.649" y="78.9061" width="17.5347" height="30.6857" fill="#737373"/>
<rect x="220.645" y="78.9061" width="16.0735" height="30.6857" fill="#0F4C82"/>
<rect x="119.82" y="14.6122" width="17.5347" height="35.0694" fill="#0F4C82"/>
<rect x="138.816" y="14.6122" width="17.5347" height="35.0694" fill="#0F4C82"/>
<rect x="157.812" y="14.6122" width="17.5347" height="35.0694" fill="#737373"/>
<rect x="185.576" y="24.8408" width="13.151" height="23.3796" fill="#0F4C82"/>
<rect x="200.188" y="24.8408" width="10.2286" height="23.3796" fill="#0F4C82"/>
<rect x="213.339" y="24.8408" width="10.2286" height="23.3796" fill="#FFBE58"/>
<rect x="226.49" y="24.8408" width="11.6898" height="23.3796" fill="#0F4C82"/>
<rect x="179.731" y="175.347" width="68.6776" height="43.8367" fill="#FFBE58"/>
<rect x="110.323" y="175.347" width="66.4857" height="43.1061" fill="#FFBE58"/>
<rect x="107.919" y="1.25" width="142.161" height="219.606" stroke="white" stroke-width="2.5"/>
<line x1="108.131" y1="49.8929" x2="248.408" y2="49.8929" stroke="white" stroke-width="2.5"/>
<line x1="109.592" y1="111.264" x2="248.408" y2="111.264" stroke="white" stroke-width="2.5"/>
<line x1="109.592" y1="174.097" x2="248.408" y2="174.097" stroke="white" stroke-width="2.5"/>
<line x1="173.674" y1="14.6122" x2="173.674" y2="49.6816" stroke="white" stroke-width="2.5"/>
<line x1="157.601" y1="14.6122" x2="157.601" y2="49.6816" stroke="white" stroke-width="2.5"/>
<line x1="137.144" y1="14.6122" x2="137.144" y2="49.6816" stroke="white" stroke-width="2.5"/>
<line x1="119.609" y1="14.6122" x2="119.609" y2="49.6816" stroke="white" stroke-width="2.5"/>
<line x1="118.359" y1="16.2847" x2="176.077" y2="16.2847" stroke="white" stroke-width="2.5"/>
<line x1="184.114" y1="25.0521" x2="238.91" y2="25.0521" stroke="white" stroke-width="2.5"/>
<line x1="185.364" y1="23.3796" x2="185.364" y2="49.6816" stroke="white" stroke-width="2.5"/>
<line x1="198.515" y1="23.3796" x2="198.515" y2="49.6816" stroke="white" stroke-width="2.5"/>
<line x1="211.666" y1="23.3796" x2="211.666" y2="49.6816" stroke="white" stroke-width="2.5"/>
<line x1="224.817" y1="23.3796" x2="224.817" y2="49.6816" stroke="white" stroke-width="2.5"/>
<line x1="236.507" y1="23.3796" x2="236.507" y2="49.6816" stroke="white" stroke-width="2.5"/>
<line x1="119.609" y1="59.9102" x2="119.609" y2="111.053" stroke="white" stroke-width="2.5"/>
<line x1="132.76" y1="59.9102" x2="132.76" y2="111.053" stroke="white" stroke-width="2.5"/>
<line x1="144.45" y1="59.9102" x2="144.45" y2="111.053" stroke="white" stroke-width="2.5"/>
<line x1="159.062" y1="59.9102" x2="159.062" y2="111.053" stroke="white" stroke-width="2.5"/>
<line x1="118.359" y1="61.5826" x2="184.845" y2="61.5826" stroke="white" stroke-width="2.5"/>
<line x1="170.752" y1="59.9102" x2="170.752" y2="111.053" stroke="white" stroke-width="2.5"/>
<line x1="182.442" y1="59.9102" x2="182.442" y2="111.053" stroke="white" stroke-width="2.5"/>
<line x1="199.977" y1="75.9836" x2="199.977" y2="109.592" stroke="white" stroke-width="2.5"/>
<line x1="218.972" y1="75.9836" x2="218.972" y2="109.592" stroke="white" stroke-width="2.5"/>
<line x1="236.069" y1="75.9836" x2="236.069" y2="109.592" stroke="white" stroke-width="2.5"/>
<line x1="198.727" y1="77.6561" x2="238.472" y2="77.6561" stroke="white" stroke-width="2.5"/>
<line x1="116.898" y1="124.415" x2="159.273" y2="124.415" stroke="white" stroke-width="2.5"/>
<line x1="118.148" y1="124.204" x2="118.148" y2="172.425" stroke="white" stroke-width="2.5"/>
<line x1="134.221" y1="124.204" x2="134.221" y2="172.425" stroke="white" stroke-width="2.5"/>
<line x1="145.911" y1="124.204" x2="145.911" y2="172.425" stroke="white" stroke-width="2.5"/>
<line x1="156.87" y1="124.204" x2="156.87" y2="172.425" stroke="white" stroke-width="2.5"/>
<line x1="172.424" y1="139.028" x2="230.143" y2="139.028" stroke="white" stroke-width="2.5"/>
<line x1="173.674" y1="138.816" x2="173.674" y2="172.425" stroke="white" stroke-width="2.5"/>
<line x1="189.748" y1="138.816" x2="189.748" y2="172.425" stroke="white" stroke-width="2.5"/>
<line x1="211.666" y1="138.816" x2="211.666" y2="172.425" stroke="white" stroke-width="2.5"/>
<line x1="227.74" y1="138.816" x2="227.74" y2="172.425" stroke="white" stroke-width="2.5"/>
<line x1="178.058" y1="173.886" x2="178.058" y2="220.645" stroke="white" stroke-width="2.5"/>
<rect x="160.835" y="191.52" width="7.10612" height="15.8735" rx="3.55306" fill="white" stroke="white" stroke-width="0.2"/>
<rect x="190.059" y="191.52" width="7.10612" height="15.8735" rx="3.55306" fill="white" stroke="white" stroke-width="0.2"/>
<rect x="119.82" y="125.665" width="13.151" height="46.0286" fill="#0F4C82"/>
<rect x="135.894" y="125.665" width="8.76735" height="46.0286" fill="#737373"/>
<rect x="147.584" y="125.665" width="8.76735" height="46.0286" fill="#0F4C82"/>
<rect x="175.347" y="140.278" width="13.151" height="31.4163" fill="#0F4C82"/>
<rect x="213.339" y="140.278" width="13.151" height="31.4163" fill="#0F4C82"/>
<rect x="192.151" y="140.278" width="18.2653" height="31.4163" fill="#FFBE58"/>
<path d="M94.7188 289.538C97.0156 289.538 98.9062 288.928 100.391 287.71C101.891 286.491 102.711 284.803 102.852 282.647H104.117C103.992 285.1 103.047 287.077 101.281 288.577C99.5156 290.061 97.3281 290.803 94.7188 290.803C91.5469 290.803 89.0234 289.655 87.1484 287.358C85.2891 285.061 84.3594 281.944 84.3594 278.007V277.163C84.3594 273.319 85.2891 270.249 87.1484 267.952C89.0234 265.655 91.5312 264.507 94.6719 264.507C97.3594 264.507 99.5781 265.311 101.328 266.921C103.078 268.53 104.008 270.671 104.117 273.343H102.852C102.742 271.061 101.938 269.233 100.438 267.858C98.9531 266.468 97.0312 265.772 94.6719 265.772C91.8438 265.772 89.625 266.796 88.0156 268.843C86.4219 270.874 85.625 273.702 85.625 277.327V278.147C85.625 281.694 86.4297 284.483 88.0391 286.514C89.6641 288.53 91.8906 289.538 94.7188 289.538ZM108.57 277.163C108.57 274.741 109.031 272.569 109.953 270.647C110.891 268.71 112.203 267.202 113.891 266.124C115.594 265.046 117.516 264.507 119.656 264.507C121.781 264.507 123.688 265.03 125.375 266.077C127.062 267.124 128.375 268.608 129.312 270.53C130.266 272.452 130.75 274.616 130.766 277.022V278.147C130.766 280.585 130.305 282.764 129.383 284.686C128.461 286.608 127.148 288.108 125.445 289.186C123.758 290.264 121.844 290.803 119.703 290.803C117.562 290.803 115.641 290.272 113.938 289.21C112.25 288.147 110.938 286.663 110 284.757C109.062 282.835 108.586 280.678 108.57 278.288V277.163ZM109.836 278.147C109.836 280.257 110.25 282.194 111.078 283.96C111.922 285.71 113.086 287.077 114.57 288.061C116.07 289.046 117.781 289.538 119.703 289.538C122.594 289.538 124.945 288.452 126.758 286.28C128.586 284.108 129.5 281.311 129.5 277.889V277.163C129.5 275.085 129.078 273.163 128.234 271.397C127.391 269.632 126.219 268.257 124.719 267.272C123.234 266.272 121.547 265.772 119.656 265.772C116.766 265.772 114.406 266.874 112.578 269.077C110.75 271.28 109.836 274.053 109.836 277.397V278.147ZM148.109 265.889L146.469 265.749C144.312 265.749 142.508 266.452 141.055 267.858C139.602 269.249 138.648 271.202 138.195 273.718V290.335H136.93V264.975H138.195V270.249C138.883 268.483 139.914 267.085 141.289 266.053C142.664 265.022 144.391 264.507 146.469 264.507C147.203 264.507 147.797 264.593 148.25 264.764L148.109 265.889ZM154.273 270.882C155.102 268.913 156.32 267.358 157.93 266.218C159.539 265.077 161.32 264.507 163.273 264.507C165.992 264.507 168.008 265.28 169.32 266.827C170.648 268.358 171.32 270.678 171.336 273.788V290.335H170.07V273.741C170.055 271.022 169.5 269.014 168.406 267.718C167.312 266.405 165.578 265.749 163.203 265.749C161.016 265.749 159.117 266.53 157.508 268.093C155.914 269.639 154.836 271.639 154.273 274.093V290.335H153.008V264.975H154.273V270.882ZM188.422 290.803C186.375 290.803 184.492 290.257 182.773 289.163C181.07 288.053 179.734 286.538 178.766 284.616C177.797 282.694 177.312 280.561 177.312 278.218V277.163C177.312 274.819 177.781 272.671 178.719 270.718C179.656 268.764 180.945 267.241 182.586 266.147C184.227 265.053 186.016 264.507 187.953 264.507C190.781 264.507 193.094 265.514 194.891 267.53C196.688 269.546 197.586 272.194 197.586 275.475V276.811H178.578V278.194C178.578 280.257 179.008 282.171 179.867 283.936C180.742 285.686 181.938 287.061 183.453 288.061C184.984 289.061 186.641 289.561 188.422 289.561C190.125 289.561 191.57 289.28 192.758 288.718C193.961 288.139 195.023 287.257 195.945 286.069L196.836 286.702C194.945 289.436 192.141 290.803 188.422 290.803ZM187.953 265.772C185.484 265.772 183.391 266.694 181.672 268.538C179.953 270.366 178.945 272.702 178.648 275.546H196.32V275.241C196.32 273.522 195.953 271.928 195.219 270.46C194.5 268.975 193.5 267.827 192.219 267.014C190.953 266.186 189.531 265.772 187.953 265.772ZM214.672 265.889L213.031 265.749C210.875 265.749 209.07 266.452 207.617 267.858C206.164 269.249 205.211 271.202 204.758 273.718V290.335H203.492V264.975H204.758V270.249C205.445 268.483 206.477 267.085 207.852 266.053C209.227 265.022 210.953 264.507 213.031 264.507C213.766 264.507 214.359 264.593 214.812 264.764L214.672 265.889ZM220.227 290.335V256.21H229.672C232.312 256.21 234.703 256.835 236.844 258.085C238.984 259.335 240.664 261.093 241.883 263.358C243.102 265.608 243.727 268.132 243.758 270.928V275.358C243.758 278.202 243.156 280.764 241.953 283.046C240.766 285.327 239.102 287.108 236.961 288.389C234.82 289.671 232.43 290.319 229.789 290.335H220.227ZM221.492 257.475V289.069H229.672C232.062 289.069 234.234 288.491 236.188 287.335C238.156 286.163 239.695 284.538 240.805 282.46C241.914 280.366 242.477 278.046 242.492 275.499V271.116C242.492 268.569 241.945 266.257 240.852 264.178C239.773 262.1 238.258 260.475 236.305 259.303C234.367 258.116 232.219 257.507 229.859 257.475H221.492ZM251.633 290.335V256.21H260.609C264.281 256.21 267.055 256.96 268.93 258.46C270.82 259.944 271.766 262.108 271.766 264.952C271.766 267.014 271.242 268.725 270.195 270.085C269.148 271.444 267.672 272.311 265.766 272.686C267.922 272.968 269.719 273.905 271.156 275.499C272.594 277.077 273.312 278.889 273.312 280.936C273.312 283.843 272.367 286.139 270.477 287.827C268.602 289.499 265.984 290.335 262.625 290.335H251.633ZM252.898 273.483V289.069H262.766C265.656 289.069 267.922 288.358 269.562 286.936C271.219 285.499 272.047 283.514 272.047 280.983C272.047 278.827 271.25 277.053 269.656 275.663C268.062 274.257 265.93 273.53 263.258 273.483H252.898ZM252.898 272.218H261.078C264.188 272.218 266.531 271.624 268.109 270.436C269.688 269.233 270.477 267.374 270.477 264.858C270.477 260.014 267.281 257.553 260.891 257.475H252.898V272.218Z" fill="white"/>
</svg>
