<svg width="245" height="216" viewBox="0 0 245 216" fill="none" xmlns="http://www.w3.org/2000/svg">
<g filter="url(#filter0_d)">
<rect x="83" y="43" width="7" height="32" fill="#0F4C82"/>
<rect x="92" y="43" width="7" height="32" fill="#0F4C82"/>
<rect x="100" y="43" width="8" height="32" fill="#E4AA6A"/>
<rect x="110" y="43" width="7" height="32" fill="#0F4C82"/>
<rect x="118" y="43" width="7" height="32" fill="#0F4C82"/>
<rect x="138" y="54" width="12" height="21" fill="#E4AA6A"/>
<rect x="151" y="54" width="11" height="21" fill="#0F4C82"/>
<rect x="82" y="10" width="12" height="24" fill="#0F4C82"/>
<rect x="95" y="10" width="12" height="24" fill="#0F4C82"/>
<rect x="108" y="10" width="12" height="24" fill="black"/>
<rect x="127" y="17" width="9" height="16" fill="#0F4C82"/>
<rect x="137" y="17" width="7" height="16" fill="#0F4C82"/>
<rect x="146" y="17" width="7" height="16" fill="#E4AA6A"/>
<rect x="155" y="17" width="8" height="16" fill="#0F4C82"/>
<rect x="123" y="120" width="47" height="30" fill="#E4AA6A"/>
<rect x="75.5" y="120" width="45.5" height="29.5" fill="#E4AA6A"/>
<rect x="74.25" y="1.25" width="96.5" height="149.5" stroke="#B97A57" stroke-width="2.5"/>
<line x1="74" y1="33.75" x2="170" y2="33.75" stroke="#B97A57" stroke-width="2.5"/>
<line x1="75" y1="75.75" x2="170" y2="75.75" stroke="#B97A57" stroke-width="2.5"/>
<line x1="75" y1="118.75" x2="170" y2="118.75" stroke="#B97A57" stroke-width="2.5"/>
<line x1="119.25" y1="10" x2="119.25" y2="34" stroke="#B97A57" stroke-width="2.5"/>
<line x1="108.25" y1="10" x2="108.25" y2="34" stroke="#B97A57" stroke-width="2.5"/>
<line x1="94.25" y1="10" x2="94.25" y2="34" stroke="#B97A57" stroke-width="2.5"/>
<line x1="82.25" y1="10" x2="82.25" y2="34" stroke="#B97A57" stroke-width="2.5"/>
<line x1="81" y1="10.75" x2="120.5" y2="10.75" stroke="#B97A57" stroke-width="2.5"/>
<line x1="126" y1="16.75" x2="163.5" y2="16.75" stroke="#B97A57" stroke-width="2.5"/>
<line x1="127.25" y1="16" x2="127.25" y2="34" stroke="#B97A57" stroke-width="2.5"/>
<line x1="136.25" y1="16" x2="136.25" y2="34" stroke="#B97A57" stroke-width="2.5"/>
<line x1="145.25" y1="16" x2="145.25" y2="34" stroke="#B97A57" stroke-width="2.5"/>
<line x1="154.25" y1="16" x2="154.25" y2="34" stroke="#B97A57" stroke-width="2.5"/>
<line x1="162.25" y1="16" x2="162.25" y2="34" stroke="#B97A57" stroke-width="2.5"/>
<line x1="82.25" y1="41" x2="82.25" y2="76" stroke="#B97A57" stroke-width="2.5"/>
<line x1="91.25" y1="41" x2="91.25" y2="76" stroke="#B97A57" stroke-width="2.5"/>
<line x1="99.25" y1="41" x2="99.25" y2="76" stroke="#B97A57" stroke-width="2.5"/>
<line x1="109.25" y1="41" x2="109.25" y2="76" stroke="#B97A57" stroke-width="2.5"/>
<line x1="81" y1="41.75" x2="126.5" y2="41.75" stroke="#B97A57" stroke-width="2.5"/>
<line x1="117.25" y1="41" x2="117.25" y2="76" stroke="#B97A57" stroke-width="2.5"/>
<line x1="125.25" y1="41" x2="125.25" y2="76" stroke="#B97A57" stroke-width="2.5"/>
<line x1="137.25" y1="52" x2="137.25" y2="75" stroke="#B97A57" stroke-width="2.5"/>
<line x1="150.25" y1="52" x2="150.25" y2="75" stroke="#B97A57" stroke-width="2.5"/>
<line x1="161.95" y1="52" x2="161.95" y2="75" stroke="#B97A57" stroke-width="2.5"/>
<line x1="136" y1="52.75" x2="163.2" y2="52.75" stroke="#B97A57" stroke-width="2.5"/>
<line x1="80" y1="84.75" x2="109" y2="84.75" stroke="#B97A57" stroke-width="2.5"/>
<line x1="81.25" y1="85" x2="81.25" y2="118" stroke="#B97A57" stroke-width="2.5"/>
<line x1="92.25" y1="85" x2="92.25" y2="118" stroke="#B97A57" stroke-width="2.5"/>
<line x1="100.25" y1="85" x2="100.25" y2="118" stroke="#B97A57" stroke-width="2.5"/>
<line x1="107.75" y1="85" x2="107.75" y2="118" stroke="#B97A57" stroke-width="2.5"/>
<line x1="118" y1="94.75" x2="157.5" y2="94.75" stroke="#B97A57" stroke-width="2.5"/>
<line x1="119.25" y1="95" x2="119.25" y2="118" stroke="#B97A57" stroke-width="2.5"/>
<line x1="130.25" y1="95" x2="130.25" y2="118" stroke="#B97A57" stroke-width="2.5"/>
<line x1="145.25" y1="95" x2="145.25" y2="118" stroke="#B97A57" stroke-width="2.5"/>
<line x1="156.25" y1="95" x2="156.25" y2="118" stroke="#B97A57" stroke-width="2.5"/>
<line x1="122.25" y1="119" x2="122.25" y2="151" stroke="#B97A57" stroke-width="2.5"/>
<rect x="110.1" y="131.1" width="4.8" height="10.8" rx="2.4" fill="white" stroke="white" stroke-width="0.2"/>
<rect x="130.1" y="131.1" width="4.8" height="10.8" rx="2.4" fill="white" stroke="white" stroke-width="0.2"/>
<rect x="82" y="86" width="9" height="31.5" fill="#0F4C82"/>
<rect x="93" y="86" width="6" height="31.5" fill="black"/>
<rect x="101" y="86" width="6" height="31.5" fill="#0F4C82"/>
<rect x="120" y="96" width="9" height="21.5" fill="#0F4C82"/>
<rect x="146" y="96" width="9" height="21.5" fill="#0F4C82"/>
<rect x="131.5" y="96" width="12.5" height="21.5" fill="#E4AA6A"/>
<path d="M49.2231 203.76C48.4551 203.92 47.5111 204.064 46.3911 204.192C45.3031 204.32 44.2791 204.384 43.3191 204.384C40.6311 204.384 38.6471 203.968 37.3671 203.136C36.1191 202.272 35.3031 200.992 34.9191 199.296C34.5671 197.6 34.3911 195.088 34.3911 191.76C34.3911 188.432 34.6151 185.904 35.0631 184.176C35.5111 182.416 36.3591 181.136 37.6071 180.336C38.8551 179.536 40.7111 179.136 43.1751 179.136C44.1671 179.136 45.2071 179.2 46.2951 179.328C47.3831 179.456 48.2951 179.6 49.0311 179.76V182.784C47.4311 182.464 45.7671 182.304 44.0391 182.304C42.2471 182.304 40.9351 182.544 40.1031 183.024C39.3031 183.504 38.7591 184.384 38.4711 185.664C38.2151 186.944 38.0871 188.976 38.0871 191.76C38.0871 194.608 38.2311 196.672 38.5191 197.952C38.8071 199.2 39.3511 200.064 40.1511 200.544C40.9831 200.992 42.3111 201.216 44.1351 201.216C45.8631 201.216 47.5591 201.056 49.2231 200.736V203.76ZM63.4431 204.384C60.4351 204.384 58.2751 204.048 56.9631 203.376C55.6511 202.672 54.8031 201.504 54.4191 199.872C54.0671 198.208 53.8911 195.504 53.8911 191.76C53.8911 188.016 54.0671 185.328 54.4191 183.696C54.8031 182.032 55.6511 180.864 56.9631 180.192C58.2751 179.488 60.4351 179.136 63.4431 179.136C66.4511 179.136 68.6111 179.488 69.9231 180.192C71.2351 180.864 72.0671 182.032 72.4191 183.696C72.8031 185.328 72.9951 188.016 72.9951 191.76C72.9951 195.504 72.8031 198.208 72.4191 199.872C72.0671 201.504 71.2351 202.672 69.9231 203.376C68.6111 204.048 66.4511 204.384 63.4431 204.384ZM63.4431 201.216C65.4271 201.216 66.8031 201.008 67.5711 200.592C68.3711 200.144 68.8671 199.344 69.0591 198.192C69.2511 197.008 69.3471 194.864 69.3471 191.76C69.3471 188.656 69.2511 186.528 69.0591 185.376C68.8671 184.192 68.3711 183.392 67.5711 182.976C66.8031 182.528 65.4271 182.304 63.4431 182.304C61.4591 182.304 60.0831 182.528 59.3151 182.976C58.5471 183.392 58.0671 184.192 57.8751 185.376C57.6831 186.528 57.5871 188.656 57.5871 191.76C57.5871 194.896 57.6831 197.04 57.8751 198.192C58.0671 199.344 58.5471 200.144 59.3151 200.592C60.0831 201.008 61.4591 201.216 63.4431 201.216ZM79.2719 179.52H82.5359L82.7279 184.176H83.0159C83.4959 182.256 84.3279 180.944 85.5119 180.24C86.7279 179.504 88.3119 179.136 90.2639 179.136V182.832C88.3439 182.832 86.8399 183.184 85.7519 183.888C84.6959 184.56 83.9599 185.6 83.5439 187.008C83.1279 188.384 82.9199 190.224 82.9199 192.528V204H79.2719V179.52ZM109.519 189.888C109.519 187.552 109.391 185.904 109.135 184.944C108.911 183.952 108.447 183.296 107.743 182.976C107.071 182.656 105.935 182.496 104.335 182.496C102.575 182.496 101.279 182.832 100.447 183.504C99.647 184.144 99.135 185.056 98.911 186.24C98.719 187.424 98.623 189.104 98.623 191.28V204H94.975V179.52H98.239L98.431 182.976H98.671C99.151 181.728 99.935 180.784 101.023 180.144C102.143 179.472 103.743 179.136 105.823 179.136C107.903 179.136 109.455 179.456 110.479 180.096C111.535 180.736 112.239 181.712 112.591 183.024C112.975 184.336 113.167 186.176 113.167 188.544V204H109.519V189.888ZM137.853 193.008H123.165C123.165 195.504 123.293 197.296 123.549 198.384C123.837 199.472 124.445 200.224 125.373 200.64C126.333 201.056 127.901 201.264 130.077 201.264C132.125 201.264 134.445 201.088 137.037 200.736V203.712C136.173 203.904 135.005 204.064 133.533 204.192C132.093 204.32 130.685 204.384 129.309 204.384C126.365 204.384 124.205 204.016 122.829 203.28C121.453 202.512 120.541 201.28 120.093 199.584C119.677 197.888 119.469 195.296 119.469 191.808C119.469 188.352 119.661 185.792 120.045 184.128C120.429 182.432 121.293 181.184 122.637 180.384C124.013 179.552 126.173 179.136 129.117 179.136C131.869 179.136 133.853 179.536 135.069 180.336C136.285 181.104 137.053 182.32 137.373 183.984C137.693 185.616 137.853 188.208 137.853 191.76V193.008ZM129.021 182.256C127.197 182.256 125.885 182.448 125.085 182.832C124.317 183.216 123.805 183.952 123.549 185.04C123.293 186.096 123.165 187.84 123.165 190.272H134.349V189.792C134.349 187.52 134.189 185.872 133.869 184.848C133.581 183.792 133.069 183.104 132.333 182.784C131.629 182.432 130.525 182.256 129.021 182.256ZM144.194 179.52H147.458L147.65 184.176H147.938C148.418 182.256 149.25 180.944 150.434 180.24C151.65 179.504 153.234 179.136 155.186 179.136V182.832C153.266 182.832 151.762 183.184 150.674 183.888C149.618 184.56 148.882 185.6 148.466 187.008C148.05 188.384 147.842 190.224 147.842 192.528V204H144.194V179.52ZM160.425 170.976H169.641C173.577 170.976 176.361 171.392 177.993 172.224C179.625 173.024 180.665 174.496 181.113 176.64C181.561 178.752 181.785 182.368 181.785 187.488C181.785 192.608 181.561 196.24 181.113 198.384C180.665 200.496 179.625 201.968 177.993 202.8C176.361 203.6 173.577 204 169.641 204H160.425V170.976ZM169.209 200.592C172.217 200.592 174.249 200.384 175.305 199.968C176.393 199.52 177.097 198.464 177.417 196.8C177.769 195.136 177.945 192.032 177.945 187.488C177.945 182.976 177.769 179.888 177.417 178.224C177.097 176.528 176.393 175.472 175.305 175.056C174.217 174.608 172.185 174.384 169.209 174.384H164.265V200.592H169.209ZM189.066 170.976H201.882C204.794 170.976 206.874 171.68 208.122 173.088C209.402 174.496 210.042 176.544 210.042 179.232C210.042 181.472 209.626 183.232 208.794 184.512C207.994 185.792 206.682 186.624 204.858 187.008V187.2C206.97 187.616 208.41 188.512 209.177 189.888C209.978 191.232 210.378 193.04 210.378 195.312C210.378 198 209.754 200.128 208.506 201.696C207.258 203.232 204.986 204 201.69 204H189.066V170.976ZM200.778 185.568C202.602 185.568 203.962 185.12 204.858 184.224C205.754 183.328 206.202 181.92 206.202 180C206.202 178.592 206.042 177.488 205.722 176.688C205.434 175.888 204.89 175.312 204.09 174.96C203.322 174.576 202.218 174.384 200.778 174.384H192.906V185.568H200.778ZM200.97 200.64C203.082 200.64 204.522 200.208 205.29 199.344C206.09 198.48 206.49 196.976 206.49 194.832C206.49 192.688 206.074 191.184 205.242 190.32C204.442 189.424 203.018 188.976 200.97 188.976H192.906V200.64H200.97Z" fill="#0F4C82"/>
</g>
<defs>
<filter id="filter0_d" x="30.3911" y="0" width="183.986" height="212.384" filterUnits="userSpaceOnUse" color-interpolation-filters="sRGB">
<feFlood flood-opacity="0" result="BackgroundImageFix"/>
<feColorMatrix in="SourceAlpha" type="matrix" values="0 0 0 0 0 0 0 0 0 0 0 0 0 0 0 0 0 0 127 0" result="hardAlpha"/>
<feOffset dy="4"/>
<feGaussianBlur stdDeviation="2"/>
<feComposite in2="hardAlpha" operator="out"/>
<feColorMatrix type="matrix" values="0 0 0 0 0 0 0 0 0 0 0 0 0 0 0 0 0 0 0.25 0"/>
<feBlend mode="normal" in2="BackgroundImageFix" result="effect1_dropShadow"/>
<feBlend mode="normal" in="SourceGraphic" in2="effect1_dropShadow" result="shape"/>
</filter>
</defs>
</svg>
